<?xml version="1.0" encoding="UTF-8" standalone="no"?>
<!-- Created with Inkscape (http://www.inkscape.org/) -->

<svg
   xmlns:dc="http://purl.org/dc/elements/1.1/"
   xmlns:cc="http://creativecommons.org/ns#"
   xmlns:rdf="http://www.w3.org/1999/02/22-rdf-syntax-ns#"
   xmlns:svg="http://www.w3.org/2000/svg"
   xmlns="http://www.w3.org/2000/svg"
   xmlns:sodipodi="http://sodipodi.sourceforge.net/DTD/sodipodi-0.dtd"
   xmlns:inkscape="http://www.inkscape.org/namespaces/inkscape"
   id="svg3436"
   version="1.1"
   inkscape:version="0.91 r13725"
   width="2044.8"
   height="1533.6"
   viewBox="0 0 2044.8 1533.6"
   sodipodi:docname="lexus-logo-photo1-l.svg">
  <metadata
     id="metadata3442">
    <rdf:RDF>
      <cc:Work
         rdf:about="">
        <dc:format>image/svg+xml</dc:format>
        <dc:type
           rdf:resource="http://purl.org/dc/dcmitype/StillImage" />
        <dc:title></dc:title>
      </cc:Work>
    </rdf:RDF>
  </metadata>
  <defs
     id="defs3440" />
  <sodipodi:namedview
     pagecolor="#ffffff"
     bordercolor="#666666"
     borderopacity="1"
     objecttolerance="10"
     gridtolerance="10"
     guidetolerance="10"
     inkscape:pageopacity="0"
     inkscape:pageshadow="2"
     inkscape:window-width="1366"
     inkscape:window-height="705"
     id="namedview3438"
     showgrid="false"
     inkscape:zoom="0.35455254"
     inkscape:cx="688.86719"
     inkscape:cy="848.88551"
     inkscape:window-x="-8"
     inkscape:window-y="-8"
     inkscape:window-maximized="1"
     inkscape:current-layer="layer6" />
  <g
     inkscape:groupmode="layer"
     id="layer8"
     inkscape:label="BG"
     style="display:inline">
    <rect
       style="fill:#000000"
       id="rect3470"
       width="2037.7001"
       height="1519.4"
       x="0"
       y="14.19994" />
    <rect
       style="fill:#000000"
       id="rect3472"
       width="113.60001"
       height="35.5"
       x="2080.3"
       y="1533.6" />
    <path
       style="fill:none;fill-rule:evenodd;stroke:#000000;stroke-width:1px;stroke-linecap:butt;stroke-linejoin:miter;stroke-opacity:1"
       d="m 1384.8485,1200.2666 c -4.0404,-2.0202 -7.7777,-4.8196 -12.1212,-6.0606 -2.9137,-0.8325 -6.0606,0 -9.0909,0 -3.0303,0 -6.0606,0 -9.0909,0 -6.0607,0 -12.1213,0 -18.1819,0 -1.0101,0 -2.0202,0 -3.0303,0 -1.0101,0 -2.1268,0.4518 -3.0303,0 -0.7889,-0.3944 -5.1202,-3.9706 -3.0303,-6.0606 1.5971,-1.5971 4.0404,-2.0202 6.0606,-3.0303 2.0202,-1.0101 4.0404,-2.0202 6.0606,-3.0303 7.9241,-3.962 16.0852,-8.8583 24.2425,-12.1212 0.9378,-0.3751 2.0202,0 3.0303,0 3.0303,0 6.0606,0 9.0909,0 3.0303,0 6.3805,1.3552 9.0909,0 2.0202,-1.0101 1.4332,-4.4635 3.0303,-6.0606 1.4285,-1.4285 4.2537,0.9035 6.0606,0 1.2777,-0.6388 1.7526,-2.3915 3.0303,-3.0303 0.9035,-0.4517 2.1268,0.4517 3.0303,0 2.5554,-1.2777 3.5052,-4.7829 6.0606,-6.0606 0.9035,-0.4517 3.0303,-1.0101 3.0303,0 0,1.0101 -2.0202,0 -3.0303,0 -3.1463,0 -9.5557,-0.6414 -12.1212,0 -3.0989,0.7747 -5.9921,2.2556 -9.0909,3.0303 -0.98,0.245 -2.3161,-0.7142 -3.0303,0 -1.5971,1.5971 -1.4332,4.4635 -3.0303,6.0606 -0.7143,0.7143 -2.0202,0 -3.0303,0 -3.0303,0 -21.2121,0 0,0 5.0505,0 10.101,0 15.1515,0 8.0808,0 16.1616,0 24.2424,0 8.0808,0 16.1616,0 24.2424,0 8.0808,0 16.1756,0.4745 24.2425,0 9.131,-0.5371 18.1416,-2.4932 27.2727,-3.0303 8.0669,-0.4745 16.1795,0.5375 24.2424,0 7.1267,-0.4751 14.1414,-2.0202 21.2121,-3.0303 24.3743,-3.482 14.4362,-0.7716 30.3031,-6.0606 31.0858,-10.362 -17.0765,4.6274 21.2121,-3.0303 1.4007,-0.2802 2.0202,-2.0202 3.0303,-3.0303 2.0202,0 4.0404,0 6.0606,0 2.0202,0 4.0404,0 6.0606,0 1.0101,0 3.0303,-1.0101 3.0303,0 0,1.0101 -2.0202,0 -3.0303,0"
       id="path3474"
       inkscape:connector-curvature="0" />
    <path
       style="fill:none;fill-rule:evenodd;stroke:#000000;stroke-width:1px;stroke-linecap:butt;stroke-linejoin:miter;stroke-opacity:1"
       d="m 1615.1515,891.17573 c -33.0749,19.84495 -7.2669,-1.5297 -15.1515,18.18182 -1.0611,2.65266 -4.2759,3.82967 -6.0606,6.06061 -2.2751,2.8439 -3.7855,6.247 -6.0606,9.09091 -1.7848,2.23094 -4.4758,3.68344 -6.0606,6.0606 -0.5603,0.84046 0.5603,2.18985 0,3.03031 -1.5848,2.37716 -4.4758,3.68344 -6.0606,6.0606 -0.5603,0.84046 0.4517,2.12684 0,3.0303 -0.6389,1.27769 -2.0202,2.02021 -3.0303,3.03031 -1.0101,1.0101 -1.6018,3.0303 -3.0303,3.0303 -1.0101,0 0,-2.0202 0,-3.0303 0,-11.83773 -0.9035,-0.31992 3.0303,-12.12121 1.317,-3.95104 1.7133,-8.17018 3.0303,-12.12122 2.7291,-8.18742 6.1415,-16.13172 9.0909,-24.24242 1.0916,-3.00191 1.9087,-6.10007 3.0303,-9.09091 1.9099,-5.09322 4.3405,-9.99109 6.0606,-15.15152 0.3194,-0.95826 0,-2.0202 0,-3.0303 0,-3.0303 -0.5943,-6.11945 0,-9.09091 0.443,-2.21479 2.0202,-4.0404 3.0303,-6.0606 1.0101,-2.02021 2.3161,-3.91786 3.0303,-6.06061 0.5014,-1.50411 0.2581,-8.83284 0,-9.09091 -0.7142,-0.71425 -2.0202,0 -3.0303,0 -1.0101,0 -2.0202,0 -3.0303,0 -6.9367,0 -9.6697,-1.35519 -15.1515,3.0303 -3.3464,2.67713 -5.6625,6.51962 -9.0909,9.09091 -4.7119,3.53391 -10.6796,5.25785 -15.1515,9.09091 -2.7652,2.37017 -3.8755,6.17734 -6.0607,9.09091 -4.0319,5.37593 -5.8536,2.82337 -12.1212,9.09091 -0.7142,0.71425 0.4518,2.12684 0,3.0303 -0.3944,0.78894 -5.3991,3.69174 -3.0303,6.06061 0.7143,0.71425 2.1269,0.45173 3.0303,0 5.518,-2.75896 1.7764,-2.29872 3.0303,-6.06061 0.7143,-2.14274 2.0202,-4.0404 3.0303,-6.0606"
       id="path3476"
       inkscape:connector-curvature="0" />
  </g>
  <g
     inkscape:groupmode="layer"
     id="layer7"
     inkscape:label="Blue"
     style="display:inline">
    <path
       style="fill:#b3b3b3"
       d="M 936.73183,1205.4954 C 713.83528,1182.819 525.31461,1070.8922 450.22985,916.6538 412.44776,839.04223 404.26372,764.36968 424.74705,684.14441 456.02214,561.65199 567.00284,447.58701 715.51971,385.29084 c 94.734,-39.73667 192.62357,-58.69269 303.03029,-58.68093 198.1639,0.0211 373.8467,65.34715 490.2329,182.28861 98.2615,98.73037 136.6724,227.2378 103.2911,345.57058 -45.7374,162.1337 -209.61,291.9179 -426.1263,337.4844 -74.2291,15.6218 -174.9669,21.0957 -249.21587,13.5419 z"
       id="path3480"
       inkscape:connector-curvature="0" />
  </g>
  <g
     inkscape:groupmode="layer"
     id="layer6"
     inkscape:label="1st"
     style="display:inline">
    <path
       style="fill:#000000"
       d="m -6.3639598,766.05195 0,-766.80000414 2044.7999598,0 0,1533.60005414 -2044.7999598,0 z M 1078.136,1172.4416 c 42.2446,3.1733 172.0404,-10.9122 151.7998,-17.7602 -20.0181,7.2074 -48.8914,14.0006 -16.1302,9.3006 57.8108,-4.1022 89.7526,-34.0565 126.1663,-16.2968 56.0823,1.5416 111.8931,0.3989 163.2808,-12.0167 21.1022,-5.7544 44.7483,-10.1383 61.4421,-24.5711 -54.9318,-1.0623 -195.1098,16.5125 -188.4306,2.6165 77.6002,-28.7936 157.3479,-126.39368 188.4853,-170.69751 -35.1033,53.38916 -11.685,27.73019 8.1538,-3.93811 -48.951,70.30362 27.1574,52.34249 83.483,46.11637 21.2028,-3.40295 -17.949,-9.22924 21.6451,-16.7167 31.9553,-9.09727 69.3516,-15.42045 101.8569,-26.93289 -13.589,-8.03298 -15.5154,-16.43801 -27.652,-29.24361 -9.2012,-5.57795 -14.1754,-10.60089 -18.3921,-29.70009 17.2985,-26.40032 76.2503,-18.15291 89.4925,-56.69991 -65.5217,-10.70001 -143.0829,5.62681 -212.9364,5.16515 9.0069,-45.02425 -10.9055,-176.36661 -5.3111,-159.5967 13.646,65.22112 -3.7188,-61.53792 13.991,21.97549 -6.098,-29.85069 22.3601,28.29532 61.921,0.59581 44.049,-2.34922 54.4381,-1.70403 52.3353,-7.18975 1.099,-6.57153 59.0279,-25.24053 44.4978,-20.61563 50.7705,-8.41255 18.5018,-18.74126 -8.9478,-34.29411 -11.5276,-16.2316 -36.0768,-19.69739 -50.0976,-33.50282 -13.1013,-12.36851 -26.939,-8.0325 -5.7016,-20.1621 19.3177,-2.1223 27.9804,-22.96457 21.5995,-35.46819 -52.041,-7.54395 -149.5586,-6.59199 -190.2334,6.79984 -19.4142,-55.45824 -114.5588,-83.37607 -115.8937,-133.60951 63.92,5.26961 -36.611,-14.96548 12.167,-21.50107 42.8684,-5.16705 88.6393,-16.21493 15.111,-19.11265 -56.6821,-6.68462 -116.7598,-19.21669 -171.4209,-17.74924 33.454,14.25001 82.7308,50.50133 14.22,20.54142 -196.8113,-60.52934 -414.24302,-53.98599 -606.95491,16.17327 57.7409,-33.09043 -22.64221,-4.40911 34.58765,-25.96854 43.59193,-21.08032 -67.33087,-0.66429 -93.6873,0.28519 -29.9626,2.72422 -120.39822,12.73881 -42.2456,18.4763 35.65733,12.25933 143.60956,-25.13465 55.8075,13.08763 -95.35579,49.83656 17.59815,-8.05968 49.34578,-18.4229 -44.19038,35.3958 -116.09418,64.23645 -158.72929,113.87047 -29.40176,18.62683 -92.33436,132.21875 -81.85619,112.42207 66.50655,-77.01368 -46.88323,-58.45733 -95.71319,-59.37389 -38.20959,2.40058 -35.55372,22.64301 -44.28811,8.05321 -36.75842,7.61126 -39.22161,27.54621 -3.1165,37.94521 -2.256,9.00519 -16.34687,20.65589 -13.725,15.54662 -13.73898,10.25664 -18.18494,15.47919 -36.5086,24.23851 -24.31592,10.91873 -58.80928,33.95743 -4.2167,33.00227 49.98088,8.91004 107.19196,9.85828 152.775,15.1007 42.27373,-53.70197 -5.85682,89.06414 11.5178,115.8371 6.07313,50.26823 23.40037,57.07759 -26.48024,41.8159 -44.51388,-0.42831 -168.93398,-8.04659 -163.91196,-3.53122 49.65398,2.39847 -16.42423,10.6751 -3.5572,28.65206 19.76575,8.56741 69.31442,15.79046 66.1588,33.69865 -5.06284,10.99651 -30.11381,33.5092 -19.4022,27.6146 -19.93433,14.84875 -8.64408,32.39661 22.5,30.47985 48.69565,19.16334 170.83481,-4.95292 168.6348,40.6533 -48.68749,-3.0848 -79.46537,-0.6495 -12.4848,2.25635 70.88955,26.3644 -33.47518,-99.82627 29.8174,-20.16825 24.56665,29.27065 -62.49627,-102.7993 -8.78424,-32.00542 -23.06532,-21.88938 -49.99754,-106.53962 -19.09576,-45.96458 3.05559,13.25372 22.08997,34.73446 27.3105,48.15 16.91973,19.70833 27.41111,32.76745 45.7047,50.39995 137.70858,149.3336 357.09022,180.4098 550.09706,171.9398 z m -121.50001,-2.3682 C 771.89225,1160.5327 563.33619,1091.9504 478.2589,913.14334 392.89486,755.05423 475.26738,555.14645 620.93604,465.69748 795.75226,357.9566 1015.7207,344.14543 1213.4453,383.78803 c 174.3112,30.67283 345.9697,156.88388 371.1729,341.23317 24.783,185.44513 -121.8941,352.5626 -292.7689,403.095 -107.6348,35.4592 -222.2106,48.8235 -335.21331,41.9572 z m 92.70001,-9.2459 c 184.1654,-6.2011 395.2822,-62.4906 489.2962,-236.75579 86.1916,-141.69115 32.8947,-331.19074 -93.2591,-429.82173 C 1283.564,369.11014 1062.3136,351.07235 866.15404,380.24934 693.84931,405.05062 512.48343,504.89831 464.41009,683.08122 c -28.76518,95.59091 -3.85615,203.03767 56.88705,280.97203 -24.51798,-38.93684 -48.16064,-83.88236 -1.5316,-31.97713 38.4417,38.54078 71.79976,80.03278 118.7414,108.30488 -22.05327,-14.4649 -84.27552,-86.10557 -28.0003,-30.1885 201.73135,136.482 445.26916,148.6216 649.93716,90.7404 94.7806,-32.3072 -77.9341,29.8056 -16.6169,12.2815 28.2679,-6.3013 -67.1913,20.8392 -1.7396,4.1421 36.244,-1.0732 163.9576,-72.4006 138.2482,-55.2313 -201.616,109.4353 -452.24137,111.8663 -665.12274,33.9316 -52.38342,-24.0264 -92.25006,-46.5294 -140.34098,-77.8576 1.2825,-7.7628 -70.06645,-65.19521 -20.37364,-14.552 123.85727,132.5458 322.42047,159.4822 494.83786,157.1803 z m -67.05,-41.6348 C 843.13268,1115.9753 699.48856,1064.8102 607.05319,957.60963 512.0987,848.92296 515.20752,676.72762 609.67805,568.90456 c 28.06356,-9.29164 13.18962,-56.89547 32.40799,-51.69025 14.13196,-22.9484 35.1513,-20.89253 50.34055,-39.61235 21.19273,-13.2199 87.36874,-45.57775 10.52569,-11.86719 -90.95437,43.19856 59.28538,-46.72087 97.44622,-46.02576 79.14076,-20.60727 170.58442,-37.68019 247.2743,-24.62535 31.9382,31.49106 -52.17279,82.06445 -75.46322,123.14559 -86.21989,99.9377 -158.33746,210.59435 -222.91159,325.48509 -66.45099,165.70366 215.4172,135.94021 297.76091,135.59411 116.8785,-1.89927 233.9171,-1.79621 350.7261,-5.27126 -2.4974,50.69571 -93.73,76.16721 -137.6892,102.36601 -87.4086,35.525 -184.151,44.9344 -277.8098,42.7895 z m 97.2433,-154.04745 c -691.48162,488.02745 -345.74078,244.01375 0,0 z m -549.93046,-52.1683 c -20.66606,-32.02429 -47.48702,-145.49856 -21.43025,-54.02967 1.38764,11.34237 28.13005,60.1269 21.43025,54.02967 z m -16.4696,-15.7404 c -16.44157,-50.48912 -5.75479,2.66422 -24.5251,-53.00827 -8.5631,-3.30083 -20.71396,-74.54002 -2.1094,-20.88397 -9.51534,-40.57019 7.43543,-149.26214 -10.0096,-73.83201 7.33774,-48.30283 -1.09016,-70.69202 27.52318,-125.70713 25.81456,-52.81563 47.3551,-48.94026 12.42462,4.54292 -23.57395,63.81682 0.94346,-40.71359 -17.4675,27.3392 -14.3026,80.06367 -9.36354,166.35473 14.1638,241.54926 z m -13.1578,-38.2596 c -18.61699,-58.48299 9.88133,8.9062 -10e-5,0 z m 23.786,-247.275 c 22.27603,-56.57463 -30.47853,51.50738 0,0 z M 1005.236,874.96333 c -106.10505,-4.73957 21.1867,-127.27325 34.5395,-174.95201 57.6704,-90.42272 128.5101,-172.04407 200.5672,-250.96383 67.5567,-22.45745 132.7146,26.75522 184.5885,72.98063 32.2897,27.69881 84.767,107.92184 28.2838,31.83792 -37.6691,-39.95256 -47.4796,-44.88398 -4.8875,-1.70562 -17.1073,-19.00275 -69.2259,-57.59319 -29.0542,-18.68878 23.3771,2.07994 -2.2329,42.39294 28.686,64.54054 21.1024,20.44847 45.2474,115.36693 40.7607,73.00631 -3.4539,-85.07386 49.7231,46.96021 40.834,82.16119 -7.7338,52.2077 -5.1619,59.33764 -16.4745,91.56318 -54.4735,66.00945 12.3081,-98.40492 -22.7364,-10.74088 -2.31,46.88817 -50.3852,44.16749 -84.5891,41.41563 -133.5058,-0.0554 -267.0146,0.37335 -400.518,-0.45428 z m 405,-7.61428 c 9.589,-8.05145 -32.4859,4.14247 0,0 z m 88.0832,-75.8721 c 8.3711,-37.09136 -11.0806,-128.19131 -0.223,-41.80144 4.0931,0.5333 -6.3853,68.97746 0.223,41.80144 z m 23.3946,-66.73227 c -27.9129,-65.0624 -29.3679,-4.26459 0,0 z M 457.27584,812.13051 c -11.52493,-37.46013 9.28514,-150.29637 -1.79499,-53.52677 -2.48705,6.60051 5.4246,68.48977 1.79499,53.52677 z m 15.7243,-3.00682 c -13.25386,-13.32347 -16.62686,-67.55558 1.2384,-4.92012 l 0.5241,9.32174 -1.7625,-4.40162 z m -4.1001,-133.07174 c 2.11502,-36.25636 78.53425,-149.08587 46.56876,-90.26675 44.60204,-48.88701 -34.90024,53.20512 -14.23286,36.90607 -27.81663,44.39577 -18.67059,26.79484 -32.3359,53.36068 z M 1507.4735,649.75887 c -34.5069,-64.98739 -12.4879,-37.91619 5.0067,10.74889 l -5.0067,-10.74889 z m -28.4346,-4.08423 c -28.0457,-26.75956 32.7988,-4.12584 0,0 z m -871.08336,-87.0188 c 1.40847,-21.50127 8.57571,9.89541 0,0 z m 7.5805,-3.46103 c -13.51791,-27.99686 25.18741,-18.76983 0,0 z M 1434.086,489.67513 c -29.817,-26.59612 -100.5952,-57.3054 -126.3688,-71.2494 36.8217,8.53514 132.9888,68.84477 126.3688,71.2494 z M 623.63604,473.15869 C 781.55758,371.15039 982.77151,353.51357 1164.7897,383.49104 982.37759,356.13213 783.31558,374.68203 623.63604,473.15869 Z M 1206.836,392.90608 c -64.6901,-15.58921 6.049,-1.22454 0,0 z M 435.94894,654.22695 c 13.45704,-42.27475 16.40048,-33.42677 -0.093,2.025 l 0.093,-2.025 z M 1359.836,397.92318 c -88.1334,-37.94028 32.0169,-10.00673 4.3761,-4.38457 -54.5159,-23.40146 23.1218,11.0455 -4.3761,4.38457 z m 13.5,-6.27123 c -48.0157,-16.55749 -64.9979,-31.69628 -9.6003,-8.82838 1.0927,2.20476 18.4597,6.33807 9.6003,8.82838 z M 788.33599,1155.0377 c -81.89755,-21.592 -160.73418,-56.565 -228.14601,-108.1885 23.97756,29.3743 74.337,58.8981 114.29606,76.9962 36.58955,17.3012 73.91926,22.5166 113.84995,31.1923 z m -138.59995,-2.3933 c 26.32636,-10.9135 -3.78944,-14.6954 -9.7962,-15.2304 -51.90672,-4.3513 13.21254,-9.2792 -31.5005,-11.0077 -43.10722,-2.7773 -151.54736,-5.617 -46.4533,0.1007 44.53943,-2.2858 34.27913,10.5534 13.5,15.7454 -4.52914,5.7612 8.80293,6.1078 21.15,9.3459 17.74536,0.5638 35.1657,3.5056 53.1,1.0461 z"
       id="path3446"
       inkscape:connector-curvature="0"
       sodipodi:nodetypes="cccccccccccccccccccccccccccccccccccccccccccccccccccccccccccccccccccccccccccccccccccccccccccccccccccccccccccccccccccccccccccccccccccccccccccccccccccccccccccccccccccccccccccccccccccccccccccccccccccc" />
  </g>
</svg>
